# xmcd
#
# Track frame offsets:
# 150
# 26685
# 50375
# 66520
# 88012
# 113952
# 127792
# 140045
# 163447
# 192095
# 215992
# 238212
# 257480
# 288132
#
# Disc length: 4113 seconds
#
#
# Revision: 0
# Processed by: cddbd v1.5.1PL0 Copyright (c) Steve Scherf et al.
# Submitted via: FreeRIP 2.53 
#
DISCID=d9100f0e
DTITLE=Christoph Rois Boogie Boys - Live im Jazzland
DYEAR=1992
DGENRE=Boogie Woogie
TTITLE0=ROI's Boogie Boys
TTITLE1=Apex Blues
TTITLE2=The Silent Blues
TTITLE3=St. Louis Blues
TTITLE4=The Latecomer Is Here!
TTITLE5=Chef de Vienne
TTITLE6=Lux Boogie
TTITLE7=Savoy Blues
TTITLE8=Monday Struggle
TTITLE9=In a Little Spanish Town
TTITLE10=Central Avenue Breakdown
TTITLE11=Meeting with Ammons and Bach
TTITLE12=Jazzland Feeling
TTITLE13=House Rent Boogie
EXTD=DDD, 150287-2
EXTT0=
EXTT1=
EXTT2=
EXTT3=
EXTT4=
EXTT5=
EXTT6=
EXTT7=
EXTT8=
EXTT9=
EXTT10=
EXTT11=
EXTT12=
EXTT13=
PLAYORDER=
